HIERARCHY
ROOT Hips
{
 OFFSET 0.000000 0.000000 0.000000
 CHANNELS 6 Xposition Yposition Zposition Yrotation Xrotation Zrotation
 JOINT Chest
 {
  OFFSET 0.000000 11.395451 -0.039534
  CHANNELS 3 Yrotation Xrotation Zrotation
  JOINT Chest2
  {
   OFFSET 0.000000 9.398669 0.071813
   CHANNELS 3 Yrotation Xrotation Zrotation
   JOINT Chest3
   {
    OFFSET 0.000000 8.489801 0.000000
    CHANNELS 3 Yrotation Xrotation Zrotation
    JOINT Chest4
    {
     OFFSET 0.000000 8.489801 0.000000
     CHANNELS 3 Yrotation Xrotation Zrotation
     JOINT Neck
     {
      OFFSET 0.000000 12.404889 0.000000
      CHANNELS 3 Yrotation Xrotation Zrotation
      JOINT Head
      {
       OFFSET 0.000000 8.903270 0.092239
       CHANNELS 3 Yrotation Xrotation Zrotation
       End Site
       {
        OFFSET 0.000000 17.592497 0.007158
       }
      }
     }
     JOINT RightCollar
     {
      OFFSET -3.196775 6.966722 0.000000
      CHANNELS 3 Yrotation Xrotation Zrotation
      JOINT RightShoulder
      {
       OFFSET -15.955896 0.000000 0.000000
       CHANNELS 3 Yrotation Xrotation Zrotation
       JOINT RightElbow
       {
        OFFSET -24.792472 0.000000 0.000000
        CHANNELS 3 Yrotation Xrotation Zrotation
        JOINT RightWrist
        {
         OFFSET -20.900115 0.000000 0.025002
         CHANNELS 3 Yrotation Xrotation Zrotation
         End Site
         {
          OFFSET -16.056692 0.000000 0.000000
         }
        }
       }
      }
     }
     JOINT LeftCollar
     {
      OFFSET 3.196775 6.966722 0.000000
      CHANNELS 3 Yrotation Xrotation Zrotation
      JOINT LeftShoulder
      {
       OFFSET 15.955896 0.000000 0.000000
       CHANNELS 3 Yrotation Xrotation Zrotation
       JOINT LeftElbow
       {
        OFFSET 24.792472 0.000000 0.000000
        CHANNELS 3 Yrotation Xrotation Zrotation
        JOINT LeftWrist
        {
         OFFSET 20.900115 0.000000 0.025002
         CHANNELS 3 Yrotation Xrotation Zrotation
         End Site
         {
          OFFSET 16.056692 0.000000 0.000000
         }
        }
       }
      }
     }
    }
   }
  }
 }
 JOINT RightHip
 {
  OFFSET -9.568995 0.193718 0.019767
  CHANNELS 3 Yrotation Xrotation Zrotation
  JOINT RightKnee
  {
   OFFSET 0.000000 -56.649296 0.015402
   CHANNELS 3 Yrotation Xrotation Zrotation
   JOINT RightAnkle
   {
    OFFSET 0.000000 -41.365147 0.021264
    CHANNELS 3 Yrotation Xrotation Zrotation
    JOINT RightToe
    {
     OFFSET 0.000000 -7.465940 17.672538
     CHANNELS 3 Yrotation Xrotation Zrotation
     End Site
     {
      OFFSET 0.000000 -1.736315 7.837145
     }
    }
   }
  }
 }
 JOINT LeftHip
 {
  OFFSET 9.568995 0.193718 0.019767
  CHANNELS 3 Yrotation Xrotation Zrotation
  JOINT LeftKnee
  {
   OFFSET 0.000000 -56.649296 0.015402
   CHANNELS 3 Yrotation Xrotation Zrotation
   JOINT LeftAnkle
   {
    OFFSET 0.000000 -41.365147 0.021264
    CHANNELS 3 Yrotation Xrotation Zrotation
    JOINT LeftToe
    {
     OFFSET 0.000000 -7.465940 17.672538
     CHANNELS 3 Yrotation Xrotation Zrotation
     End Site
     {
      OFFSET 0.000000 -1.736315 7.837145
     }
    }
   }
  }
 }
}
MOTION
Frames: 15
Frame Time: 0.016667
175.689952 104.994071 263.703954 174.249636 -0.008824 1.171652 -1.887965 7.575519 -0.472504 -0.829482 3.369031 -0.178655 -0.829481 3.369165 -0.178658 -0.620942 2.527205 -0.129378 5.602875 13.400452 -4.264206 12.291351 -10.582293 -10.293108 3.795022 -1.441455 8.091555 10.968825 -17.200268 38.281136 34.644519 -43.602602 44.601981 -11.227509 -20.011116 4.585934 1.331610 8.185795 -2.952168 -1.408531 -23.654568 -50.576433 -19.105185 -58.414502 -56.136413 14.502123 -19.677326 2.123914 2.270801 -14.926508 -7.221105 14.386042 10.746015 0.012873 16.205064 -4.705556 13.173943 0.000000 -0.000000 0.000000 -19.980767 0.678914 -12.713551 -6.426514 30.572748 0.195288 -19.629574 0.758325 3.811764 -3.616375 -22.726574 18.945506
175.919902 104.937649 262.529443 175.459676 0.174783 1.201800 -1.820874 7.521006 -0.224829 -0.803830 3.343530 -0.070132 -0.803830 3.343530 -0.070132 -0.602317 2.507745 -0.048182 5.622793 13.293432 -4.317766 12.365521 -10.769089 -10.416981 4.014885 -1.662724 7.794985 11.502155 -16.564961 37.741474 34.905267 -43.978004 44.513655 -11.389466 -20.030649 4.557336 1.739978 8.185129 -2.899053 -0.578423 -23.640673 -51.651798 -19.064099 -58.066765 -56.232065 14.605747 -19.571892 1.971642 -0.301721 -15.259614 -6.663584 15.804532 12.405341 0.049159 16.181084 -5.693305 11.987855 0.000000 -0.000000 0.000000 -19.257025 -0.427849 -12.218028 -5.300685 33.576671 -0.398996 -19.900656 2.508771 2.525301 -4.330805 -25.163850 21.450574
176.131356 104.944512 261.380492 177.110769 0.284211 1.177789 -1.829039 7.493459 0.040572 -0.811801 3.330284 0.047582 -0.811819 3.330304 0.047579 -0.608964 2.497682 0.040100 5.580077 13.177415 -4.259650 12.279271 -10.998005 -10.307733 3.927513 -1.851768 7.590784 12.280687 -15.864144 37.092931 35.177280 -44.463785 44.285815 -11.566342 -20.132353 4.591803 1.871704 8.113197 -2.744834 0.091109 -23.349746 -52.615019 -19.215359 -57.904184 -56.257162 14.686439 -19.544460 1.871424 -0.480187 -14.823346 -6.747668 15.301799 13.348031 0.238175 15.171294 -5.998219 10.543630 0.000000 0.000000 0.000000 -18.568949 -1.600064 -11.294636 -3.544245 36.886277 -1.082470 -20.220147 4.353340 0.108208 -4.705179 -26.612335 24.760672
176.337556 104.996980 260.260218 178.991336 0.385669 1.107894 -1.856621 7.481051 0.315890 -0.828478 3.323743 0.170078 -0.828493 3.323807 0.170077 -0.622131 2.492671 0.132032 5.495948 13.038044 -4.128986 12.088512 -11.286061 -10.048889 3.687156 -1.988902 7.448939 13.193575 -15.165344 36.396798 35.482645 -45.015420 43.938535 -11.734433 -20.294049 4.649218 1.832379 8.030518 -2.531613 0.641725 -22.951636 -53.453197 -19.448115 -57.864975 -56.289420 14.739486 -19.565522 1.815260 0.380167 -14.030590 -7.067244 13.922305 13.921715 0.510740 13.706109 -6.079235 8.954452 0.000000 0.000000 0.000000 -17.765123 -2.923572 -10.086537 -1.328573 40.523244 -1.622320 -20.463411 6.437806 -2.993758 -4.736107 -27.767426 28.305071
176.564394 105.059040 259.167597 -178.917970 0.539231 1.043407 -1.945084 7.463794 0.539730 -0.871291 3.314965 0.270700 -0.871291 3.314965 0.270700 -0.654756 2.485845 0.207700 5.400613 12.886919 -3.930779 11.850616 -11.606150 -9.658839 3.474151 -2.146125 7.370333 13.894487 -14.701992 35.797437 35.633112 -45.383948 43.799435 -11.843589 -20.459273 4.662823 1.760252 7.956604 -2.379186 0.805153 -22.575359 -53.852130 -19.583261 -57.969028 -56.337760 14.691498 -19.624454 1.766573 0.328252 -13.360643 -7.161173 13.160026 14.499036 0.710180 12.315116 -6.360067 7.704508 0.000000 0.000000 0.000000 -16.432668 -4.324873 -8.864834 0.781773 44.237505 -1.727075 -20.216865 8.581185 -5.975266 -4.300913 -29.025055 30.376845
176.833802 105.121815 258.094996 -176.542492 0.789887 0.998524 -2.144333 7.422353 0.686430 -0.961902 3.295410 0.338759 -0.961856 3.295282 0.338743 -0.722992 2.470857 0.259169 5.317304 12.728821 -3.626116 11.592903 -11.951194 -9.071854 3.325237 -2.374535 7.391608 14.246139 -14.607096 35.295216 35.462379 -45.435650 44.116158 -11.868505 -20.610815 4.595794 1.683901 7.931866 -2.344660 0.372981 -22.255032 -53.567340 -19.524298 -58.275513 -56.434523 14.463279 -19.741754 1.709811 -1.866660 -13.051059 -6.786246 14.033073 15.198752 0.773656 11.192225 -7.034376 7.032021 -0.000241 0.027787 0.017157 -14.310074 -5.808854 -7.688051 2.781903 47.967692 -1.153499 -19.364323 11.025258 -9.021597 -3.193564 -30.520279 30.581494
177.123849 105.194182 257.050048 -173.956789 1.092034 0.969283 -2.404505 7.381343 0.782093 -1.078731 3.276309 0.385139 -1.078661 3.276187 0.385118 -0.810797 2.456395 0.294533 5.222394 12.552649 -3.254516 11.285482 -12.338078 -8.353951 3.201806 -2.628421 7.472083 14.403097 -14.760723 34.852754 35.117750 -45.319886 44.670487 -11.836715 -20.764555 4.480527 1.574813 7.923834 -2.368120 -0.426585 -21.989703 -52.858013 -19.355205 -58.721561 -56.556174 14.137682 -19.903698 1.656139 -4.959212 -12.867856 -6.207852 15.508648 15.933219 0.737038 10.171661 -7.896653 6.689888 -0.000411 0.055564 0.034331 -11.647501 -7.428818 -6.590745 4.973994 51.658622 0.180346 -17.926914 13.548513 -11.826594 -1.627873 -31.698719 29.205838
177.394634 105.266763 256.054625 -171.403758 1.365498 0.976289 -2.617248 7.389566 0.844224 -1.174199 3.279466 0.416161 -1.174199 3.279466 0.416161 -0.882645 2.458812 0.318344 5.075885 12.352452 -2.937732 10.901521 -12.765626 -7.719212 3.172428 -2.830341 7.495154 14.464301 -15.031782 34.547471 34.866326 -45.215111 45.104109 -11.779694 -20.914299 4.352169 1.484182 7.845121 -2.397679 -1.206655 -21.865035 -52.175574 -19.188746 -59.143662 -56.606356 13.884067 -20.047173 1.608297 -7.164191 -12.634779 -5.795806 15.996827 16.771895 0.593532 9.259072 -8.759639 6.427255 0.000000 0.000000 0.000000 -8.777902 -9.129617 -5.788926 7.093131 55.042410 2.012481 -15.657970 14.912538 -13.081387 -0.112833 -31.275823 25.995523
177.640021 105.334663 255.136522 -168.980895 1.566601 1.020328 -2.733150 7.498541 0.878114 -1.226466 3.327590 0.433693 -1.226583 3.327648 0.433720 -0.922118 2.494914 0.331907 4.851279 12.110990 -2.718469 10.411263 -13.263781 -7.239529 3.295885 -2.918776 7.394415 14.402401 -15.515316 34.439795 34.795347 -45.140424 45.317152 -11.706724 -21.053920 4.210342 1.430413 7.633256 -2.419427 -1.907566 -21.917734 -51.651898 -19.087995 -59.537094 -56.503752 13.755726 -20.149547 1.567633 -7.601225 -12.309116 -5.709521 14.617034 17.806660 0.290329 8.511915 -9.593783 6.177785 0.000863 -0.164301 -0.135921 -5.573740 -10.834371 -5.381692 8.886143 58.204542 4.104462 -12.082215 13.858311 -12.314219 1.256946 -27.812067 20.483547
177.866146 105.402777 254.267944 -166.590444 1.735081 1.094051 -2.801108 7.660027 0.885435 -1.256915 3.399131 0.438977 -1.257034 3.399156 0.439001 -0.945020 2.548492 0.336176 4.574073 11.853467 -2.553824 9.842968 -13.788928 -6.840573 3.513246 -2.949998 7.239636 14.246808 -16.130336 34.454461 34.810430 -45.070003 45.409215 -11.608991 -21.188475 4.053721 1.390461 7.350662 -2.457600 -2.598233 -22.109274 -51.162250 -19.008964 -59.908592 -56.312863 13.696553 -20.228490 1.535908 -7.157115 -11.939905 -5.788320 12.241425 18.913073 -0.108124 7.869926 -10.424480 6.003984 0.001560 -0.412347 -0.322821 -2.126306 -12.540492 -5.291355 10.535482 61.049004 6.509282 -8.108733 10.963878 -10.734459 2.321930 -21.897575 14.416155
178.051523 105.476407 253.387378 -164.182271 1.914312 1.201722 -2.860677 7.771573 0.874156 -1.283070 3.448613 0.435601 -1.283070 3.448613 0.435601 -0.964473 2.585561 0.333851 4.282707 11.642370 -2.435706 9.259283 -14.222294 -6.515907 3.718327 -3.022809 7.118026 14.177864 -16.480767 34.487231 34.907236 -45.107931 45.313118 -11.488690 -21.327994 3.916775 1.354232 7.094667 -2.517134 -3.094136 -22.418081 -50.776543 -18.921467 -60.112864 -56.138929 13.709125 -20.276578 1.518340 -6.697725 -11.512493 -5.932383 9.927876 19.828932 -0.408230 7.155847 -11.149085 5.852950 0.002398 -0.751421 -0.461377 0.899128 -14.269089 -5.402986 11.952561 63.149702 8.826220 -5.341253 7.983535 -9.308680 2.870597 -16.067571 10.301075
178.188477 105.555356 252.469004 -161.688678 2.110926 1.366970 -2.943713 7.786317 0.828474 -1.319020 3.455234 0.416820 -1.318952 3.455201 0.416810 -0.991231 2.590499 0.319971 3.985256 11.517257 -2.365995 8.673182 -14.489873 -6.269179 3.867878 -3.203676 7.074461 14.320969 -16.295791 34.529071 35.145110 -45.348689 44.907409 -11.328919 -21.482760 3.802135 1.312938 6.911312 -2.600206 -3.261791 -22.894656 -50.550634 -18.795536 -60.037733 -56.026720 13.812750 -20.276892 1.518432 -6.344779 -10.988373 -6.168632 7.912132 20.470235 -0.494766 6.213044 -11.739023 5.680796 0.004043 -1.208793 -0.482049 3.320961 -16.057304 -5.705781 12.633662 64.473606 10.465717 -4.569398 5.812646 -7.787728 3.002866 -11.695630 8.493344
178.284684 105.639821 251.538641 -159.176755 2.312890 1.568268 -3.019751 7.754449 0.756241 -1.351546 3.441341 0.385871 -1.351510 3.441269 0.385865 -1.015480 2.580070 0.296928 3.675187 11.443649 -2.338845 8.074837 -14.657424 -6.091351 4.004490 -3.431569 7.057553 14.549960 -15.853526 34.628082 35.475394 -45.685861 44.297362 -11.143652 -21.638924 3.704490 1.277064 6.756610 -2.700720 -3.236409 -23.492117 -50.450144 -18.690201 -59.794331 -55.903692 13.983632 -20.240621 1.536272 -5.983232 -10.393904 -6.458285 5.978961 20.926310 -0.470477 5.196377 -12.223518 5.533192 0.006390 -1.756750 -0.454372 5.336808 -17.834895 -6.177403 12.302033 65.219882 11.105941 -4.849112 3.907105 -6.006824 2.876110 -8.144221 7.635419
178.341685 105.735693 250.612244 -156.798537 2.539761 1.745465 -3.035131 7.716392 0.697261 -1.357415 3.424910 0.359743 -1.357415 3.424910 0.359743 -1.019777 2.567900 0.277343 3.369050 11.370237 -2.335537 7.493382 -14.820681 -5.959707 4.152752 -3.614689 7.011828 14.667856 -15.573551 34.755780 35.722717 -45.931626 43.768934 -10.980947 -21.771002 3.647711 1.267283 6.591979 -2.807740 -3.233554 -24.042784 -50.400347 -18.691506 -59.573049 -55.716207 14.160686 -20.203991 1.570776 -6.113693 -9.837937 -6.620305 4.515541 21.218431 -0.472319 4.397788 -12.585766 5.485180 0.009903 -2.319776 -0.489108 6.821561 -19.506694 -6.633577 11.040977 65.348543 10.562933 -4.764941 2.110004 -4.581207 2.681769 -5.359448 7.033674
178.366208 105.848261 249.693789 -154.586403 2.807052 1.876226 -2.966152 7.683622 0.668516 -1.326319 3.410731 0.345650 -1.326312 3.410786 0.345652 -0.996366 2.557390 0.266574 3.065722 11.278554 -2.363378 6.931701 -15.013658 -5.889782 4.328674 -3.706724 6.917168 14.550853 -15.643661 34.884597 35.777834 -46.002815 43.485124 -10.851146 -21.870539 3.647720 1.295995 6.401237 -2.923905 -3.344755 -24.509555 -50.367596 -18.831153 -59.432492 -55.446812 14.334280 -20.178548 1.630324 -7.094720 -9.383618 -6.564715 3.778886 21.335226 -0.593848 3.988484 -12.802266 5.577803 0.016239 -2.872584 -0.643863 7.619644 -21.106848 -6.961124 8.383286 64.895341 8.262775 -3.580156 0.265994 -3.739695 2.542687 -3.462339 6.715350
